<?xml version="1.0" encoding="UTF-8" standalone="no" ?>
<!DOCTYPE svg PUBLIC "-//W3C//DTD SVG 1.1//EN" "http://www.w3.org/Graphics/SVG/1.1/DTD/svg11.dtd">
<svg xmlns="http://www.w3.org/2000/svg" xmlns:xlink="http://www.w3.org/1999/xlink" version="1.1" width="1080" height="1080" viewBox="0 0 1080 1080" xml:space="preserve">
<desc>Created with Fabric.js 5.2.4</desc>
<defs>
</defs>
<rect x="0" y="0" width="100%" height="100%" fill="transparent"></rect>
<g transform="matrix(1 0 0 1 540 540)" id="8837f275-cc2b-46df-bc8f-e0645cfc1188"  >
<rect style="stroke: none; stroke-width: 1; stroke-dasharray: none; stroke-linecap: butt; stroke-dashoffset: 0; stroke-linejoin: miter; stroke-miterlimit: 4; fill: rgb(255,255,255); fill-rule: nonzero; opacity: 1; visibility: hidden;" vector-effect="non-scaling-stroke"  x="-540" y="-540" rx="0" ry="0" width="1080" height="1080" />
</g>
<g transform="matrix(1 0 0 1 540 540)" id="54d4edac-e9cf-438c-89f4-deca9546ec68"  >
</g>
<g transform="matrix(1 0 0 1 467.68 540)"  >
<path style="stroke: none; stroke-width: 1; stroke-dasharray: none; stroke-linecap: butt; stroke-dashoffset: 0; stroke-linejoin: miter; stroke-miterlimit: 4; fill: rgb(39,71,96); fill-rule: nonzero; opacity: 1;" vector-effect="non-scaling-stroke"  transform=" translate(-13.18, -14)" d="M 13.159 0.00019456 C 13.091 0.00372176 13.0246 0.0210236 12.9642 0.0522393 C 12.9642 0.0522393 7.37545 2.81639 0.406262 3.73778 C 0.172116 3.76988 -0.00172373 3.96913 0.0000128967 4.20349 L 0.0000128967 13.9989 C 0.0000128967 19.9996 3.31325 23.5591 6.57997 25.5386 C 9.84667 27.5181 13.1066 27.9947 13.1066 27.9947 C 13.1529 28.0018 13.2 28.0018 13.2463 27.9947 C 13.2463 27.9947 16.5063 27.5181 19.773 25.5386 C 23.0397 23.5591 26.3529 19.9996 26.3529 13.9989 L 26.3529 4.20349 C 26.3549 3.96913 26.1808 3.76984 25.9467 3.73778 C 18.9775 2.81639 13.3888 0.0522393 13.3888 0.0522393 C 13.3179 0.0159091 13.2388 -0.00209812 13.159 0.00019456 Z M 13.1764 5.60149 C 17.849 5.60149 21.6452 9.36558 21.6452 13.9988 C 21.6452 18.632 17.849 22.4007 13.1764 22.4007 C 8.50384 22.4007 4.7077 18.632 4.7077 13.9988 C 4.7077 9.36558 8.50384 5.60149 13.1764 5.60149 Z M 11.2932 9.80016 L 11.2932 12.136 L 8.94206 12.136 C 8.68217 12.135 8.47068 12.3431 8.46964 12.6008 L 8.46964 15.4014 C 8.47058 15.6591 8.68217 15.8672 8.94206 15.8662 L 11.2932 15.8662 L 11.2932 18.202 C 11.2941 18.4601 11.5063 18.6683 11.7665 18.6668 L 14.5864 18.6668 C 14.8462 18.6677 15.0577 18.4597 15.0588 18.202 L 15.0588 15.8662 L 17.4108 15.8662 C 17.6707 15.8671 17.8822 15.6591 17.8832 15.4014 L 17.8832 12.6008 C 17.8823 12.3431 17.6707 12.135 17.4108 12.136 L 15.0588 12.136 L 15.0588 9.80016 C 15.0578 9.54246 14.8462 9.33437 14.5864 9.33536 L 11.7422 9.33536 C 11.4767 9.35881 11.293 9.55995 11.2932 9.80016 Z" stroke-linecap="round" />
</g>
<g transform="matrix(1 0 0 1 523.42 540)" style="" id="388992ff-b042-435c-bbff-e43d26dbeec3"  >
		<text xml:space="preserve" font-family="Lato" font-size="27" font-style="normal" font-weight="400" style="stroke: none; stroke-width: 1; stroke-dasharray: none; stroke-linecap: butt; stroke-dashoffset: 0; stroke-linejoin: miter; stroke-miterlimit: 4; fill: rgb(39,71,96); fill-rule: nonzero; opacity: 1; white-space: pre;" ><tspan x="-35.67" y="8.48" >SMEP</tspan></text>
</g>
</svg>